/* XPM */
static char *Free_Converter_com_0_97213832[] = {
/* columns rows colors chars-per-pixel */
"20 40 109 2 ",
"   c #00009E",
".  c #0000A3",
"X  c #0A0BA6",
"o  c #0505A9",
"O  c #0B0CAD",
"+  c #1414AE",
"@  c #1A1AAE",
"#  c #0E0FB4",
"$  c #0F10B4",
"%  c #1011B5",
"&  c #1D1DB0",
"*  c #1314B8",
"=  c #1718BB",
"-  c #2324B4",
";  c #2829B6",
":  c #2E2FB8",
">  c #2E30BB",
",  c #3838BB",
"<  c #2425C5",
"1  c #2C2CC6",
"2  c #2527CA",
"3  c #2729CC",
"4  c #292BCE",
"5  c #3334C6",
"6  c #3436D3",
"7  c #393BD1",
"8  c #3B3EE1",
"9  c #4547C5",
"0  c #4243CF",
"q  c #4C4DCD",
"w  c #4E50CA",
"e  c #5456CB",
"r  c #5A5BCF",
"t  c #474ADF",
"y  c #4A4DDE",
"u  c #4E50D1",
"i  c #6464CD",
"p  c #6868CF",
"a  c #6E6EDB",
"s  c #7273DB",
"d  c #7B7DDD",
"f  c #4343E6",
"g  c #4A4DE5",
"h  c #4A4DE9",
"j  c #5457E6",
"k  c #5558E4",
"l  c #5959E9",
"z  c #4F52F1",
"x  c #5656FB",
"c  c #5D61F3",
"v  c #5F61FF",
"b  c #686AE9",
"n  c #7C7CEE",
"m  c #6467F4",
"M  c #6B6FF4",
"N  c #6165FB",
"B  c #6A6CFC",
"V  c #6F73F5",
"C  c #6E72FB",
"Z  c #777AF3",
"A  c #7A7BF4",
"S  c #7275FC",
"D  c #767AFF",
"F  c #7A7DFE",
"G  c #7F81DF",
"H  c #7E81E1",
"J  c #7D81F7",
"K  c #7E81FB",
"L  c #8284DF",
"P  c #8A8DE5",
"I  c #8788EE",
"U  c #8F92E9",
"Y  c #9595E1",
"T  c #9194E9",
"R  c #9C9DE9",
"E  c #8387FD",
"W  c #8589FD",
"Q  c #8A8CFE",
"!  c #8C90F3",
"~  c #8D91FF",
"^  c #9193F3",
"/  c #9296FD",
"(  c #9598FC",
")  c #9B9EFD",
"_  c #9DA1FE",
"`  c #A4A4F3",
"'  c #A5A8F2",
"]  c #A9ABF2",
"[  c #A1A4FD",
"{  c #A6A9FD",
"}  c #AAACFC",
"|  c #AEB1F2",
" . c #ADB1FE",
".. c #B2B3F2",
"X. c #B6B8F7",
"o. c #BEBEF2",
"O. c #B2B5FD",
"+. c #B6B9FD",
"@. c #BABCFC",
"#. c #BEC1FC",
"$. c #C0C0F4",
"%. c #C4C5FC",
"&. c #C6C8FC",
"*. c #CACBFC",
"=. c #CFD0FE",
"-. c #D4D5FC",
";. c #D7D8FD",
":. c #DADAFD",
">. c #E0E0FF",
/* pixels */
". . o . . . . . .     . . . . . . . . . ",
". . . . . . o o O # + + X . . . . . . . ",
". . . . . . . * 2 7 u w > X . . o . . . ",
". . . . . . O 4 h V ^ U e @ . . . . . . ",
". . . . o % 2 t V ( +.X.L 9 - X . . . . ",
". . . . % 4 g V ( O.*.*...P r - . . . . ",
". . . O < g C / O.%.-.-.=.@.P 9 + o . . ",
". o % 2 t V /  .%.-.:.:.:.=.| G e ; X . ",
". O 2 h S ( O.%.=.;.;.;.;.-.*.X.U w @ . ",
". # 7 M /  .&.-.-.=.&.$.*.-.;.-.O.d 9 > ",
". + q ! O.%.-.:.:.%.} _ +.-.:.:.*.] P H ",
"  + r ' &.-.:.:.-.@.( W ` =.:.:.-.&.#.@.",
"  @ i ..;.;.:.:.-.X.Q F ) *.:.:.:.-.=.=.",
". @ i o.:.:.:.>.;.O.K C ( *.:.:.:.-.-.-.",
"  @ p $.>.:.;.:.;.] b k I &.>.:.-.:.:.:.",
". @ p o.>.:.:.>.-.R q 5 s $.>.:.:.;.;.:.",
"  @ p o.>.>.-.>.:.Y , & i o.>.:.;.:.:.-.",
"  @ p o.:.:.:.>.-.Y , @ i o.>.:.;.;.:.:.",
"  & p o.>.:.:.>.-.Y , @ i o.>.:.:.-.-.:.",
"  @ p o.:.:.:.>.-.Y , & i o.>.:.:.:.:.-.",
"  @ p o.>.:.-.>.-.Y , @ i o.>.>.-.:.:.-.",
"  & p o.>.:.:.>.-.Y , @ i o.:.:.:.-.-.:.",
". @ p o.>.:.:.>.:.Y , & i o.>.:.-.-.:.:.",
"  @ p o.>.:.:.>.-.Y , & i o.>.:.-.:.:.-.",
"  @ p o.>.:.:.>.-.R 0 1 a $.>.:.-.:.:.-.",
". @ p o.>.>.;.>.-.` l f n %.>.:.:.:.-.:.",
"  @ i X.:.:.;.:.;.} B x W %.:.:.:.-.-.:.",
". @ r ` *.-.:.>.;.} S v Q *.:.:.-.:.:.:.",
"  + q ! X.*.;.>.;.O.F B Y -.:.:.:.:.:.-.",
"  # 0 n [ #.=.:.-.@.^ E ` $.:.:.:.-.:.:.",
". O 6 m Q  .%.-.-.&. .{ @.-.:.:.:.-.:.:.",
". O 2 h V ( O.&.-.-.$.#.&.-.-.:.:.-.-.-.",
". o * 4 t V / +.-.:.-.*.-.-.:.:.;.-.*.*.",
". . . O < g S [ *.:.:.-.-.:.;.;.-.*.#.@.",
". . . . % 4 g A { %.-.:.:.;.-.-.*.+.{ ) ",
". . . . o # < g Z [ %.;.>.:.-.*.@.) E D ",
". . o . . . O 3 h Z { *.-.-.*.@.{ J c z ",
". . . . . . o * 2 t n _ +.$.+.[ J k 6 3 ",
". . . . . . . . O < g S ) O.} W c 6 = o ",
". . . . . . . . . = 8 N ~ } [ F z 4 X   "
};
