/* XPM */
static char *aad19f61ebd942c9e82df0cb00cb01a3[] = {
/* columns rows colors chars-per-pixel */
"20 40 161 2 ",
"   c #0000A4",
".  c #0000A4",
"X  c #0000A4",
"o  c #0000A4",
"O  c #0000A4",
"+  c #0000A4",
"@  c #0000A4",
"#  c #0000A4",
"$  c #0000A3",
"%  c #0000A3",
"&  c #0000A3",
"*  c #0000A3",
"=  c #0000A3",
"-  c #0000A4",
";  c #0000A4",
":  c #0000A4",
">  c #0000A3",
",  c #0000A2",
"<  c #0000A1",
"1  c #0000A1",
"2  c #0000A1",
"3  c #0000A1",
"4  c #0000A2",
"5  c #0000A3",
"6  c #0000A4",
"7  c #0000A4",
"8  c #0000A4",
"9  c #0101A5",
"0  c #0202A6",
"q  c #0404A6",
"w  c #0505A6",
"e  c #0607A6",
"r  c #0708A7",
"t  c #0808A6",
"y  c #0707A6",
"u  c #0404A5",
"i  c #0101A4",
"p  c #0000A4",
"a  c #0000A4",
"s  c #0101A5",
"d  c #0707AC",
"f  c #1212B6",
"g  c #1D1EBE",
"h  c #292ABF",
"j  c #3435BF",
"k  c #3C3DBF",
"l  c #4040BF",
"z  c #3838BB",
"x  c #2121B1",
"c  c #0909A8",
"v  c #0000A3",
"b  c #0000A3",
"n  c #1212B6",
"m  c #2A2CCF",
"M  c #4548E0",
"N  c #6063E3",
"B  c #787BE2",
"V  c #8B8DE3",
"C  c #9495E3",
"Z  c #8282D9",
"A  c #4C4BC3",
"S  c #1515AC",
"D  c #0000A3",
"F  c #0000A3",
"G  c #0000A4",
"H  c #6E72F7",
"J  c #9195FB",
"K  c #AEB2FA",
"L  c #C5C8FB",
"P  c #D0D1FB",
"I  c #B6B6EE",
"U  c #6A69CE",
"Y  c #1D1DB0",
"T  c #0000A2",
"R  c #0000A2",
"E  c #0000A4",
"W  c #0000A1",
"Q  c #0505A6",
"!  c #292ABF",
"~  c #6063E3",
"^  c #9195FB",
"/  c #B0B4FF",
"(  c #C7C9FF",
")  c #D8DAFF",
"_  c #DFE0FF",
"`  c #C0C0F3",
"'  c #6F6FD1",
"]  c #1F1FB0",
"[  c #0000A2",
"{  c #0000A2",
"}  c #0000A4",
"|  c #0607A6",
" . c #3435BF",
".. c #787BE2",
"X. c #AEB1FA",
"o. c #C6C9FF",
"O. c #D1D2FD",
"+. c #DBDBFE",
"@. c #DDDDFE",
"#. c #BDBDF1",
"$. c #6C6CD0",
"%. c #1E1EB0",
"&. c #0000A2",
"*. c #0000A2",
"=. c #0707A7",
"-. c #3B3BBF",
";. c #888AE1",
":. c #C1C3F9",
">. c #D4D5FF",
",. c #D7D8FD",
"<. c #DDDDFD",
"1. c #DDDDFE",
"2. c #BCBCF0",
"3. c #6C6CCF",
"4. c #1E1EB0",
"5. c #0000A2",
"6. c #0000A2",
"7. c #0808A7",
"8. c #3F3FBF",
"9. c #9192E1",
"0. c #CCCDF9",
"q. c #DBDBFF",
"w. c #D9D9FD",
"e. c #DDDDFD",
"r. c #DDDDFE",
"t. c #BCBCF0",
"y. c #6C6CCF",
"u. c #1E1EB0",
"i. c #0808A7",
"p. c #4141BF",
"a. c #9696E1",
"s. c #D2D2F9",
"d. c #DEDEFF",
"f. c #DADAFD",
"g. c #DDDDFD",
"h. c #DDDDFE",
"j. c #0808A7",
"k. c #4141BF",
"l. c #9898E1",
"z. c #D3D3F9",
"x. c #DFDFFF",
"c. c #DADAFD",
"v. c #DCDDFD",
"b. c #DDDDFE",
"n. c #0808A7",
"m. c #4141BF",
"M. c #9797E1",
"N. c #D2D2F9",
"B. c #DFDFFF",
"V. c #DADAFD",
"C. c #DDDDFD",
"Z. c #DDDDFE",
"A. c #4141BF",
"S. c #9797E1",
"D. c #D2D2F9",
"F. c #DFDFFF",
"G. c #DADAFD",
"H. c #9797E1",
"J. c #D2D2F9",
"K. c #DFDFFF",
"L. c #EFEFEF",
/* pixels */
"        . X o o o o o O +               ",
"      @ # $ % & & & * = - ; .           ",
"    + : > , < 1 2 2 3 4 5 6 7           ",
"  @ : 8 9 0 q w e r t y u i p a .       ",
". # > s d f g h j k l z x c v b a       ",
"X $ , 0 n m M N B V C Z A S D F G .     ",
"o % < q g M H J K L P I U Y T R E .     ",
"o & W Q ! ~ ^ / ( ) _ ` ' ] [ { } .     ",
"o & 2 |  ...X.o.O.+.@.#.$.%.&.*.} .     ",
"o & 2 =.-.;.:.>.,.<.1.2.3.4.5.6.} .     ",
"o & 2 7.8.9.0.q.w.e.r.t.y.u.5.6.} .     ",
"o & 2 i.p.a.s.d.f.g.h.t.y.u.5.6.} .     ",
"o & 2 j.k.l.z.x.c.v.b.t.y.u.5.6.} .     ",
"o & 2 n.m.M.N.B.V.C.Z.t.y.u.5.6.} .     ",
"o & 2 n.A.S.D.F.G.C.Z.t.y.u.5.6.} .     ",
"o & 2 n.A.H.J.K.G.C.Z.t.y.u.5.6.} .     ",
"o & 2 n.A.H.J.K.G.C.Z.t.y.u.5.6.} .     ",
"o & 2 n.A.H.J.K.G.C.Z.t.y.u.5.6.} .     ",
"o & 2 n.A.H.J.K.G.C.Z.t.y.u.5.6.} .     ",
"o & 2 n.A.H.J.K.G.C.Z.t.y.u.5.6.} .     ",
"o & 2 n.A.H.J.K.G.C.Z.t.y.u.5.6.} .     ",
"o & 2 n.A.H.J.K.G.C.Z.t.y.u.5.6.} .     ",
"o & 2 n.A.H.J.K.G.C.Z.t.y.u.5.6.} .     ",
"o & 2 n.A.H.J.K.G.C.Z.t.y.u.5.6.} .     ",
"o & 2 n.A.H.J.K.G.C.Z.t.y.u.5.6.} .     ",
"o & 2 n.A.H.J.K.G.C.Z.t.y.u.5.6.} .     ",
"o & 2 n.A.H.J.K.G.C.Z.t.y.u.5.6.} .     ",
"o & 2 n.A.H.J.K.G.C.Z.t.y.u.5.6.} .     ",
"o & 2 n.A.H.J.K.G.C.Z.t.y.u.5.6.} .     ",
"o & 2 n.A.H.J.K.G.C.Z.t.y.u.5.6.} .     ",
"o & 2 n.A.H.J.K.G.C.Z.t.y.u.5.6.} .     ",
"o & 2 n.A.H.J.K.G.C.Z.t.y.u.5.6.} .     ",
"o & 2 n.A.H.J.K.G.C.Z.t.y.u.5.6.} .     ",
"o & 2 n.A.H.J.K.G.C.Z.t.y.u.5.6.} .     ",
"o & 2 n.A.H.J.K.G.C.Z.t.y.u.5.6.} .     ",
"o & 2 n.A.H.J.K.G.C.Z.t.y.u.5.6.} .     ",
"o & 2 n.A.H.J.K.G.C.Z.t.y.u.5.6.} .     ",
"o & 2 n.A.H.J.K.G.C.Z.t.y.u.5.6.} .     ",
"o & 2 n.A.H.J.K.G.C.Z.t.y.u.5.6.} .     ",
"o & 2 n.A.H.J.K.G.C.Z.t.y.u.5.6.} .     "
};
