/* XPM */
static char *Free_Converter_com_2_45753832[] = {
/* columns rows colors chars-per-pixel */
"20 40 136 2 ",
"   c #00009F",
".  c #0000A3",
"X  c #0404AB",
"o  c #0708AB",
"O  c #0B0BAD",
"+  c #1314AD",
"@  c #1718AE",
"#  c #1919AE",
"$  c #0505B0",
"%  c #0C0DB1",
"&  c #0C0CB9",
"*  c #0F10B8",
"=  c #1516B7",
"-  c #1A1AB3",
";  c #1516BA",
":  c #1618BC",
">  c #1A1BBC",
",  c #1F20B7",
"<  c #2324BD",
"1  c #2D2EBD",
"2  c #3536BE",
"3  c #3E3EBD",
"4  c #4040BD",
"5  c #0D0DC0",
"6  c #100FC0",
"7  c #1010C2",
"8  c #1C1CC2",
"9  c #1717C9",
"0  c #1B1BCB",
"q  c #2123C2",
"w  c #292BC2",
"e  c #2426CC",
"r  c #2729CC",
"t  c #282ACB",
"y  c #2E30CE",
"u  c #3333C5",
"i  c #3D3FC5",
"p  c #3739CF",
"a  c #3B3BCF",
"s  c #2525D2",
"d  c #2C2CD2",
"f  c #2525DB",
"g  c #2E30D2",
"h  c #3537D4",
"j  c #373AD6",
"k  c #3D3DD0",
"l  c #373ADB",
"z  c #383BDB",
"x  c #3D3DE4",
"c  c #3535E9",
"v  c #3E40D5",
"b  c #4343C2",
"n  c #4B4DCF",
"m  c #5355CF",
"M  c #5C5DCF",
"N  c #4144D0",
"B  c #4345DC",
"V  c #4C4CDE",
"C  c #5353D5",
"Z  c #5A5CDD",
"A  c #5F60CF",
"S  c #5F61D4",
"D  c #6666CF",
"F  c #6969CF",
"G  c #6163D6",
"H  c #6768D0",
"J  c #6669DC",
"K  c #7174DB",
"L  c #4749E4",
"P  c #4C4EE4",
"I  c #4A4EE9",
"U  c #5356E5",
"Y  c #595AE3",
"T  c #4647F2",
"R  c #4B4BF2",
"E  c #4E52F1",
"W  c #5252F4",
"Q  c #5B5FF1",
"!  c #5F61E7",
"~  c #5F62F3",
"^  c #6D6FE6",
"/  c #6D6DE8",
"(  c #6F72E3",
")  c #7373E6",
"_  c #787AE5",
"`  c #6466F5",
"'  c #6B6FF4",
"]  c #6969FD",
"[  c #6C70F1",
"{  c #6E72FA",
"}  c #7373F3",
"|  c #7779F4",
" . c #7B7EF6",
".. c #7375FC",
"X. c #7579FF",
"o. c #7C80F4",
"O. c #7F82FF",
"+. c #8283E3",
"@. c #878AE6",
"#. c #9595E2",
"$. c #9A9AE3",
"%. c #8E8FF2",
"&. c #8284FD",
"*. c #8488FE",
"=. c #8A8CFC",
"-. c #8C90F3",
";. c #8D90FE",
":. c #9192F5",
">. c #9C9EF1",
",. c #9295FC",
"<. c #9C9DFF",
"1. c #9CA0FE",
"2. c #A4A4EE",
"3. c #A2A5F0",
"4. c #A6A9F3",
"5. c #AAAAF4",
"6. c #A3A5FC",
"7. c #A6A9FE",
"8. c #ACAEFB",
"9. c #ADB0F2",
"0. c #AEB1FE",
"q. c #B5B7F6",
"w. c #B9BAF3",
"e. c #B3B5FE",
"r. c #BBBDFC",
"t. c #BEC1FE",
"y. c #C0C0F2",
"u. c #C3C4FD",
"i. c #C6C8FD",
"p. c #CBCCFD",
"a. c #CFD0FD",
"s. c #D4D5FC",
"d. c #D7D8FC",
"f. c #DADAFC",
"g. c #E0DFFC",
"h. c #E2E1FF",
/* pixels */
". . . . . . . . . . . . . . . . . . . . ",
". . . . . . . . . . . . . . . . . . . . ",
". . . . . . . .     . . . .   . . . . . ",
". . . . . . X . . o . . . o . . . . . . ",
". X % = < 1 2 3 3 3 3 4 4 3 2 < : % . . ",
"  o 8 z U ( +.#.$.$.$.$.$.$.+.Y l 8 o   ",
"  % y Q O.7.r.p.s.d.s.s.f.s.q.=.~ h = X ",
"  + v o.7.t.a.f.h.h.h.h.h.h.a.e.;.! j e ",
"  + m >.t.p.s.d.d.d.d.d.d.d.d.s.r.=.` E ",
". @ A 9.a.s.a.u.r.r.p.a.s.d.f.g.s.8.;.&.",
"  # D w.d.a.t.6.;.,.0.i.s.d.f.f.s.i.r.e.",
"  # F w.a.t.6.o.~ ' :.e.i.a.d.d.d.d.d.d.",
"  # D w.t.<...P h B [ ,.0.t.a.d.d.f.g.f.",
". @ A 2.1...T s ; q L { ,.e.i.a.d.f.f.d.",
". + 4 K ^ L f 7 X % r P o.8.i.a.d.d.f.d.",
". o # 1 1 8 * $ . X % w J 4.i.a.d.f.f.f.",
". . . . . . . . . . . , G 5.p.s.d.d.s.s.",
". . . . .   . . . $ 5 d ) q.a.f.d.s.p.p.",
". . . . . . . . . 6 f R =.u.f.f.s.p.y.r.",
". . . . . . .   . 8 x ] <.i.f.g.s.r.6.<.",
". . . . . . . . . < Y =.8.s.f.g.p.7.*.X.",
". . . . . . . . o u ) 6.u.s.f.f.u.:.` E ",
". . . . . . . & 0 V %.r.a.s.d.s.w._ k e ",
". . . X . . $ 0 c ` 6.s.f.d.s.p.4.G , X ",
". . . . . . O r W &.r.d.g.d.p.e.-.n +   ",
". . . . . . % k } <.u.d.g.f.t.<.[ a O   ",
". . . . . X - C %.e.p.d.g.s.8. .P e o . ",
". X . . $ 7 g / 5.p.s.d.d.p.>.Z t * X . ",
". . . . & f R &.y.d.d.s.a.t.@.i O . . . ",
". . . . 8 x ] <.p.f.d.a.t.6.( 1 .   . . ",
". . . . < Y =.e.a.d.a.t.6.O.U < . . . . ",
". . . O u ) 6.u.a.a.t.6.O.~ z = . . . . ",
". X & 0 V %.u.s.s.u.6. .U g : O .       ",
". X 9 c ` 7.a.g.d.e.=.~ j ; o X . X X . ",
". O r W &.e.s.g.d.u.<.| Z 4 3 3 3 4 3 3 ",
"  % a } <.u.d.g.f.p.r.8.2.$.#.#.$.$.$.#.",
"  + n %.e.p.s.g.f.s.s.s.d.s.s.d.s.s.s.s.",
". @ M 4.p.s.s.f.s.f.g.g.g.g.g.g.g.g.g.g.",
"  # D w.f.f.d.f.f.f.f.s.f.d.f.f.f.f.f.f.",
"  # F y.g.g.d.d.f.s.d.d.d.d.d.d.f.f.s.f."
};
