/* XPM */
static char *Free_Converter_com_3_33083833[] = {
/* columns rows colors chars-per-pixel */
"20 40 152 2 ",
"   c #00009F",
".  c #0001A3",
"X  c #0E0FA7",
"o  c #0505AA",
"O  c #0708A8",
"+  c #0A0BAD",
"@  c #0F10AD",
"#  c #1314AD",
"$  c #1919AD",
"%  c #0A0BB0",
"&  c #1314B5",
"*  c #1B1CB3",
"=  c #1415B9",
"-  c #1718BB",
";  c #1C1DBB",
":  c #1F20BA",
">  c #2525B6",
",  c #2728B4",
"<  c #2C2CB6",
"1  c #2324BC",
"2  c #2C2DBB",
"3  c #3233BC",
"4  c #3D3DBD",
"5  c #4040BD",
"6  c #1C1DC2",
"7  c #1E1ECE",
"8  c #2527C5",
"9  c #2A2CC3",
"0  c #2426CA",
"q  c #2628CA",
"w  c #2B2BCB",
"e  c #2F31CE",
"r  c #393BC3",
"t  c #3133CF",
"y  c #3B3CCE",
"u  c #2526DA",
"i  c #3335D2",
"p  c #3739D6",
"a  c #3A3CD2",
"s  c #3739DA",
"d  c #383BDC",
"f  c #3B3EE1",
"g  c #3F41D3",
"h  c #3E41EE",
"j  c #4546C5",
"k  c #4949C3",
"l  c #4C4EC9",
"z  c #5152C6",
"x  c #5456CD",
"c  c #5B5BCE",
"v  c #4647D0",
"b  c #4A4CD0",
"n  c #4B4DDB",
"m  c #4E50D0",
"M  c #5759D1",
"N  c #5A5BD5",
"B  c #5D5DDA",
"V  c #5E60CE",
"C  c #5F61D1",
"Z  c #6565CE",
"A  c #6A6ACF",
"S  c #6062D1",
"D  c #6668D4",
"F  c #696AD2",
"G  c #6C6ED8",
"H  c #7272D3",
"J  c #7979D6",
"K  c #7274DA",
"L  c #7779DF",
"P  c #7878DF",
"I  c #4043E6",
"U  c #4D4FE6",
"Y  c #4A4DE8",
"T  c #5658E2",
"R  c #5A5CE4",
"E  c #5557EC",
"W  c #595CEB",
"Q  c #4242F3",
"!  c #4E52F1",
"~  c #4E51F9",
"^  c #5D5FF1",
"/  c #5F61E7",
"(  c #5F62F1",
")  c #6568E4",
"_  c #696BE7",
"`  c #7679E4",
"'  c #7A7BE1",
"]  c #7173EB",
"[  c #6164F2",
"{  c #6266FB",
"}  c #6B6FFC",
"|  c #6F73F4",
" . c #6F70FE",
".. c #7476F4",
"X. c #7679F3",
"o. c #7576FD",
"O. c #7779FD",
"+. c #7A7DFE",
"@. c #7C80F4",
"#. c #7F82FF",
"$. c #8687DC",
"%. c #8A89DB",
"&. c #8385E2",
"*. c #8385E8",
"=. c #8D8DEB",
"-. c #8F91E6",
";. c #8F92E9",
":. c #9797E3",
">. c #9B9BE3",
",. c #9495EB",
"<. c #8183F3",
"1. c #8B8EF5",
"2. c #8286FD",
"3. c #8B8DFE",
"4. c #8D90FE",
"5. c #9293F3",
"6. c #9B9EF3",
"7. c #9293FB",
"8. c #9699FE",
"9. c #9A9CFC",
"0. c #9FA0E8",
"q. c #9DA1F2",
"w. c #9EA0FE",
"e. c #A2A2E7",
"r. c #A3A5ED",
"t. c #B1B2EE",
"y. c #BCBBEE",
"u. c #A3A4F3",
"i. c #A6A9F2",
"p. c #ACAFF2",
"a. c #A3A6FE",
"s. c #A6A9FE",
"d. c #ABACFD",
"f. c #ADB0FE",
"g. c #B3B5F4",
"h. c #B7B9F7",
"j. c #BDBDF2",
"k. c #B3B4FE",
"l. c #BABCFD",
"z. c #BFC1F7",
"x. c #BEC0FC",
"c. c #C2C2F4",
"v. c #CBCBF7",
"b. c #C3C4FD",
"n. c #C7C9FC",
"m. c #CBCCFD",
"M. c #CFD0FC",
"N. c #D4D4FC",
"B. c #D7D8FF",
"V. c #DBDBFD",
"C. c #E0DFFE",
"Z. c #E2E2FF",
/* pixels */
". . . . . . . . . . . . . . . . . . . . ",
". . . . . . . . . . . . . . . . . . . . ",
". . . . . . . . .       . . . . . . . . ",
". . . . . . o . . . O . . o . . . . . . ",
". O & : 9 3 3 4 4 5 5 5 5 4 3 8 - % . . ",
". O 9 n ) ` &.-.>.>.>.>.>.:.&.R d 6 o . ",
"  @ g ] 8.f.l.m.N.V.N.N.V.N.l.3.( e % . ",
". # b 1.f.n.N.V.Z.Z.Z.Z.Z.C.M.k.1.b # . ",
"  # x q.b.m.N.B.B.B.N.N.N.V.V.N.t.S $   ",
"  $ V p.m.M.b.l.k.d.k.l.b.N.C.C.c.A $ . ",
". $ Z h.M.b.d.4.o. .O.1.d.M.C.Z.c.A $   ",
". $ A y.m.u.<.( Q Q ~  .w.m.C.Z.j.A $ . ",
"  $ F h.g.L v w 7 u h { 9.n.C.Z.c.A $   ",
". # C r.-.j & o % 6 I } w.m.C.C.j.A $   ",
"  @ j K C , . . = t W #.d.M.B.n.u.M # . ",
". O $ 2 , X O ; s W <.s.b.B.m.a...a @   ",
". . . . . + ; a [ 2.s.l.c.j.u...Y 0 + . ",
". . . . # 9 n ] 7.k.b.z.>.H l y 0 & o . ",
". . . . : n ..6.x.N.B.j.J 3 # + + o . . ",
". . . . * a _ 6.n.C.C.v.%.k < : = + .   ",
". . . . O * r P g.N.V.N.y.>.P T s 6 O . ",
". . . . . . & M 6.l.m.M.B.N.l.3.( i - o ",
". . . . .   @ v @.w.f.b.M.V.M.k.7./ p 0 ",
"o . . . . . + t ^ +.4.s.x.N.V.N.l.1.[ ! ",
". . . . . . % 6 d E | 7.k.M.V.C.M.f.4.#.",
". . . . . . . % - i E +.s.m.V.C.B.n.l.h.",
". . o . . . . . . - d [ 9.m.V.V.B.B.B.N.",
". . . . . . . . . + 6 g *.c.V.V.B.V.V.V.",
". . . . . . . . . . . > H c.C.V.N.N.V.V.",
". . . . @ , 3 * O     $ A j.V.C.V.V.V.V.",
". .   . , C K j #     $ A c.C.V.N.V.C.C.",
". . o # l -.i.G , .   $ A j.C.C.N.v.c.y.",
". X 2 x &.g.b.,.N 2 + $ A c.Z.Z.N.e.J A ",
". @ l -.h.m.n.h.5.B > * A j.Z.C.c.H < # ",
". # m 5.l.M.N.M.k.=.c z $.z.v.t.%.5 @   ",
". @ a | a.b.B.B.M.j.r.0.t.b.r.A 4 $ O . ",
"  + 0 Y X.s.n.N.N.N.N.M.c.i.K 3 o . . . ",
". o & q n X.9.k.n.N.Z.M.0.D r $ . . . . ",
". . . + 8 U o.8.g.M.B.c.J < O . . . . . ",
". . . . - f { 3.d.n.V.j.A $ . . . . . . "
};
