/* XPM */
static char *Free_Converter_com_4_12403833[] = {
/* columns rows colors chars-per-pixel */
"20 40 120 2 ",
"   c #00009E",
".  c #0000A3",
"X  c #0B0BA6",
"o  c #0303AC",
"O  c #0B0BAE",
"+  c #1313AC",
"@  c #1A1AAE",
"#  c #0C0CB6",
"$  c #0F0FBC",
"%  c #1D1DB2",
"&  c #1313BC",
"*  c #1B1CBD",
"=  c #2424B3",
"-  c #2D2DB6",
";  c #2425BC",
":  c #2B2CBC",
">  c #2F31BD",
",  c #3334BB",
"<  c #3D3DBD",
"1  c #4141BE",
"2  c #0F0FC1",
"3  c #1010C1",
"4  c #1D1DCE",
"5  c #1D1DD0",
"6  c #2A2BC3",
"7  c #3132C6",
"8  c #3638CF",
"9  c #292AD0",
"0  c #2424DB",
"q  c #2929DB",
"w  c #3031D4",
"e  c #2A2BE3",
"r  c #3739E3",
"t  c #3B3BE3",
"y  c #4446C4",
"u  c #4B4BC2",
"i  c #4346CF",
"p  c #4C4DCC",
"a  c #4F51CF",
"s  c #5454C6",
"d  c #5556CD",
"f  c #5C5DCF",
"g  c #4545D0",
"h  c #4D4ED3",
"j  c #5F61D1",
"k  c #6666CD",
"l  c #6868CE",
"z  c #6263D4",
"x  c #6C6CD0",
"c  c #7676D3",
"v  c #7172DB",
"b  c #7E7EDC",
"n  c #4245E2",
"m  c #494CE3",
"M  c #4D50E4",
"N  c #5255E4",
"B  c #595AE2",
"V  c #5C5DEC",
"C  c #4040F0",
"Z  c #4B4BF2",
"A  c #5556F4",
"S  c #5151FC",
"D  c #5758FB",
"F  c #6466E4",
"G  c #6568E6",
"H  c #6B6BE1",
"J  c #6568E9",
"K  c #7374E2",
"L  c #7578E3",
"P  c #7C7FE1",
"I  c #7375E8",
"U  c #696CF2",
"Y  c #6164FB",
"T  c #6B6DFB",
"R  c #7373FE",
"E  c #7679FB",
"W  c #7A7CFA",
"Q  c #7F81DE",
"!  c #7E81F3",
"~  c #8080D8",
"^  c #8B8BDD",
"/  c #8285E2",
"(  c #8C8CE4",
")  c #8D90E6",
"_  c #8E90EA",
"`  c #9292E2",
"'  c #9C9CE3",
"]  c #8787F3",
"[  c #8486FC",
"{  c #8C8CFC",
"}  c #8F90F1",
"|  c #9395F2",
" . c #9C9FF2",
".. c #9393FF",
"X. c #969AFD",
"o. c #9A9CFF",
"O. c #9FA1FF",
"+. c #A3A3E6",
"@. c #A5A6EA",
"#. c #A2A3F5",
"$. c #A7AAF3",
"%. c #A5A6FB",
"&. c #A6A8FF",
"*. c #ABADFE",
"=. c #AFB0FD",
"-. c #B4B6F5",
";. c #BEBEF2",
":. c #B3B4FE",
">. c #B7BAFB",
",. c #BABCFD",
"<. c #C4C4F4",
"1. c #CBCBF7",
"2. c #C3C4FD",
"3. c #C7C9FE",
"4. c #CCCCFD",
"5. c #CFD0FC",
"6. c #D3D4FD",
"7. c #D7D8FE",
"8. c #DCDCFD",
"9. c #E3E3FF",
/* pixels */
". . . . . . . . . . . . . . . . . . . . ",
". . . . . . . o . . . . . . . . . . . . ",
". . . . . . . . . .   . .   . . . . . . ",
". . . . . . . . . . X . . o . . . . . . ",
". . . . o # 3 > < 1 < < 1 < - + . . . . ",
". . . . # 5 t G ( ' ' ' ' ' x - o . . . ",
". . . . $ e S { 2.8.8.6.8.1.` < . . . . ",
". . . . 2 e S ..4.9.9.8.7.3.( 7 o . . . ",
". . . . 3 e S ..3.8.8.6.2.%.K : . . . . ",
". . . . & e D ..3.8.8.5.=.{ B 6 . . . . ",
". . . . & r Y X.1.8.9.1.o.T n 3 . . . . ",
". . . . * n T O.4.8.8.2.{ Z 0 $ . . . . ",
". . . . * m E &.4.8.6.-.I w 3 o .   . . ",
". . . o ; N [ *.4.7.4.$.z * . . o . . . ",
". . . . : F X.,.5.6.2. .d + X = : @ X . ",
". . . . > L *.3.6.4.,.| p + = j v y + . ",
". . . . , / ,.6.6.3.*.] h ; y ) @.j + . ",
". .   . , / ,.6.6.2.o.W G z Q -.-.l @ . ",
". . . o , / ,.6.6.:.[ T !  .;.4.;.l @ . ",
". o o & g _ 2.6.4.#.J N ! >.6.8.;.l @ . ",
"  o 3 q V #.4.6.2.) i 7 c ;.8.9.;.l @ . ",
"  O 4 C R =.6.6.>.Q > % l ;.9.9.;.l @   ",
". + 9 A [ >.6.4.=.L - @ k ;.9.9.;.l @   ",
"  O 8 U X.2.5.3.%.H ; @ l ;.9.9.;.l @ . ",
". + i ! *.3.5.>.{ B ; @ k ;.9.9.;.l @   ",
". + a | ,.6.4.&.E n & @ l ;.9.9.;.l @   ",
"  + f #.4.7.4.&.E M 6 - c <.9.9.<.c - + ",
"  @ k ;.8.9.6.2.&.| b ~ +.1.8.8.1.+.~ x ",
"  @ k ;.8.8.6.5.1.2.;.<.1.7.7.7.6.<.<.;.",
"  + 1 ^ ' ' ' ' ' ' ' @.;.1.8.8.6.;.+.' ",
". X = , 1 y < 1 1 1 1 s ^ <.8.9.<.^ s < ",
". . . o . . . . .     @ x <.9.9.<.x @   ",
". . . . . . . . .     @ l ;.9.9.;.l @   ",
". . . . . . . . . . . @ x <.9.9.;.l @   ",
". . . . . o . . . .   @ x ;.9.9.;.l @   ",
". . . . . . . . . . . @ x ;.9.9.;.l @ . ",
". . o . . . . . . .   @ x <.9.9.;.l @   ",
". . . . . . . . . .   @ x ;.9.9.;.l @ . ",
". . . . . . . . . .   @ x ;.9.9.;.l @   ",
". . . . . . . o .     @ x ;.9.9.;.l @ . "
};
