/* XPM */
static char *Free_Converter_com_5_2993833[] = {
/* columns rows colors chars-per-pixel */
"20 40 129 2 ",
"   c #00009E",
".  c #0101A3",
"X  c #0808A7",
"o  c #0505AC",
"O  c #0B0BAC",
"+  c #1313AD",
"@  c #1919AE",
"#  c #0D0EB3",
"$  c #0E0EBA",
"%  c #1B1BB0",
"&  c #1214BC",
"*  c #1B1CBB",
"=  c #2121B4",
"-  c #2C2CB6",
";  c #2425BD",
":  c #2D2DBC",
">  c #3435BC",
",  c #3F3FBD",
"<  c #4040BD",
"1  c #0E0EC0",
"2  c #1A1BC1",
"3  c #2627C2",
"4  c #2729CF",
"5  c #2B2DCE",
"6  c #2F30C4",
"7  c #3031C6",
"8  c #3C3CC5",
"9  c #3032CF",
"0  c #2A2AD2",
"q  c #2625DB",
"w  c #3A3BD0",
"e  c #3336DA",
"r  c #3A3DDB",
"t  c #3F41D5",
"y  c #4E4EC2",
"u  c #4444CC",
"i  c #4748CF",
"p  c #4E4FCF",
"a  c #5353C5",
"s  c #5555CF",
"d  c #5B5CCC",
"f  c #4545D0",
"g  c #5454D3",
"h  c #5C5CD3",
"j  c #5B5CDC",
"k  c #6161CD",
"l  c #6B6BCE",
"z  c #6768D0",
"x  c #6C6CD0",
"c  c #6C6CDD",
"v  c #7272D3",
"b  c #7777D9",
"n  c #797ADE",
"m  c #4C4DE4",
"M  c #5254E5",
"N  c #5B5EE3",
"B  c #5B5EEA",
"V  c #4B4BF2",
"C  c #4E52F2",
"Z  c #585BF0",
"A  c #5E60EB",
"S  c #5F62F2",
"D  c #6C6CE3",
"F  c #6A6BEA",
"G  c #6F70E3",
"H  c #7779E2",
"J  c #7C7CE6",
"K  c #7072EC",
"L  c #7B7BE8",
"P  c #6165F2",
"I  c #686AF5",
"U  c #7072F4",
"Y  c #7679F1",
"T  c #7275FA",
"R  c #777AFC",
"E  c #7A7CFD",
"W  c #7E81E3",
"Q  c #7F83FD",
"!  c #8786DB",
"~  c #8386E3",
"^  c #8586EA",
"/  c #8A8BED",
"(  c #9595E2",
")  c #9A9AE3",
"_  c #8686F2",
"`  c #8788F2",
"'  c #8D8FF2",
"]  c #8787F9",
"[  c #8688FB",
"{  c #898DFD",
"}  c #8F91F5",
"|  c #8E90FD",
" . c #9393F3",
".. c #9C9DF2",
"X. c #9091FB",
"o. c #9498FE",
"O. c #9C9EFD",
"+. c #9FA0EA",
"@. c #9CA0FB",
"#. c #A5A5E7",
"$. c #A4A4EA",
"%. c #A8A8E9",
"&. c #A5A5F7",
"*. c #A8A7F7",
"=. c #A7AAF3",
"-. c #A3A4FC",
";. c #A7A8FF",
":. c #ACADFE",
">. c #AFB1FD",
",. c #B2B2F4",
"<. c #B7B9F4",
"1. c #BFBFF2",
"2. c #B3B5FD",
"3. c #B6B9FD",
"4. c #BABCFD",
"5. c #BFC1FD",
"6. c #C3C3F4",
"7. c #CCCCF7",
"8. c #C4C5FD",
"9. c #C8C7FF",
"0. c #C6C9FD",
"q. c #CCCCFD",
"w. c #CFD0FC",
"e. c #D4D5FC",
"r. c #D7D8FF",
"t. c #DADAFD",
"y. c #DFE0FF",
"u. c #E4E4FF",
"i. c #E8E8FF",
/* pixels */
". . . . . . . . . . . . . . . . . . . . ",
". . . . . . . . . . . . . . . . . . . . ",
". . . . . . . . . .     . . . . . . . . ",
". . . . . o . . . . . . . . . . . . o . ",
". . . . + - , < , , , , , , , < < , , , ",
". . . . - x ) ) ) ) ) ) ) ) ) ) ) ) ) ) ",
". .   . , ) w.t.e.e.e.e.e.e.e.e.e.e.e.e.",
". .   . u ) t.u.e.e.u.i.i.i.i.i.i.i.i.i.",
". . . . , ) e.e.5.8.q.e.e.e.e.e.e.e.e.e.",
". . . . < ) w.q.3.=.+.) ) ) ) ) ) ) ) ) ",
". . . . < ) w.9.:.^ d < , , < < , < < < ",
". . . . < ) w.9.&.G 6 . . . . . . . . . ",
". . . . < ) w.9.&.D : .     .           ",
". . . . < ) q.8.O.D : .   . . . . . . . ",
". . O 2 s $.q.4.X.F f : : > > > > : : ; ",
". o 2 r K ,.q.;.E I F G H ~ ~ ~ J D N M ",
". O 5 Z { 4.9.&.R R | &.>.3.4.5.2.@.{ Q ",
"  # w U @.8.w.4.-.-.2.8.0.w.w.w.q.3.-.@.",
". + i _ :.9.e.w.9.q.w.w.e.e.e.e.w.0.3.>.",
"  + p  .4.w.t.t.q.w.w.w.t.t.t.t.r.w.0.5.",
". + s ..8.e.r.9.4.3.5.0.w.r.t.t.t.e.w.w.",
"  + h =.9.9.5.*. . .-.2.8.e.t.t.t.e.t.e.",
"  @ l <.8.;.] F g j Y o.2.w.t.t.t.t.t.t.",
"  @ l <.2.E V 4 * 3 m T -.q.t.t.e.t.e.t.",
". + y ! ~ M q 1 o # 5 M ' 8.t.t.e.t.t.e.",
". . = > > 2 $ o . . # 6 n 6.u.t.t.t.e.t.",
". . . . . . . . . . . @ x 1.t.t.t.e.t.t.",
". . . . .   . . . .   @ l 1.u.t.t.t.t.t.",
". . . . . . . . . .   @ x 1.y.t.t.t.t.e.",
". . . . + - > = X .   @ x 1.y.y.e.7.7.0.",
". .   . - v ! a +   . @ x 1.y.t.w.8.3.>.",
". . X % a #.1.b = . . @ x 1.y.y.w.,. .` ",
". O - k ( 6.7./ t & . % l 1.u.y.7.( h i ",
". + d %.e.t.8...P e & % l 1.y.u.6.v ; X ",
"  @ x 7.i.t.q.2.| B 9 7 b 6.t.t.,.k @   ",
"  @ l 6.i.u.e.9.3.} B M / 0.e.9...s +   ",
"  @ k ,.e.t.t.t.e.2.] R O.8.8.&.L 8 + . ",
"  + i _ :.0.e.u.y.q.>.-.:.2...c u = o . ",
"  O 9 P | 4.e.t.e.e.q.9.4.&.H 8 + X . . ",
". O 4 C [ 2.e.t.t.t.y.e.5.O.D : .   . . "
};
