/* XPM */
static char *Free_Converter_com_6_40903833[] = {
/* columns rows colors chars-per-pixel */
"20 40 122 2 ",
"   c #00009F",
".  c #0000A3",
"X  c #0A0AA6",
"o  c #0606AC",
"O  c #0C0CAC",
"+  c #0F10A9",
"@  c #1414AE",
"#  c #1919AE",
"$  c #1717B1",
"%  c #1A1AB0",
"&  c #1111BB",
"*  c #191AB8",
"=  c #2323B5",
"-  c #2729B6",
";  c #2C2CB7",
":  c #2627B9",
">  c #2929BB",
",  c #2F30BB",
"<  c #3333BC",
"1  c #3939BB",
"2  c #4343BD",
"3  c #1010C1",
"4  c #1F1FC0",
"5  c #1B1BD0",
"6  c #2020CE",
"7  c #2E2ECE",
"8  c #3536C3",
"9  c #3D3DC2",
"0  c #3335C9",
"q  c #3738CB",
"w  c #2424D0",
"e  c #2B2BDC",
"r  c #3233D0",
"t  c #3D3FD0",
"y  c #3B3BF2",
"u  c #3E40C5",
"i  c #4445C2",
"p  c #4A4AC2",
"a  c #4444CE",
"s  c #4A4ACE",
"d  c #4F51CD",
"f  c #5253C7",
"g  c #5355CD",
"h  c #5759CF",
"j  c #5A5BCF",
"k  c #4446D1",
"l  c #4A4CD4",
"z  c #5555D3",
"x  c #5C5DD4",
"c  c #6565CF",
"v  c #6968CF",
"b  c #6B6CD4",
"n  c #6364DC",
"m  c #6568DB",
"M  c #7474D2",
"N  c #7B7BD4",
"B  c #7275DB",
"V  c #5556EC",
"C  c #5B5BEA",
"Z  c #4343F0",
"A  c #494AF2",
"S  c #5F61F2",
"D  c #6265E6",
"F  c #6265E9",
"G  c #7B7DE5",
"H  c #797BE9",
"J  c #6363F4",
"K  c #6E6EFF",
"L  c #7275F2",
"P  c #7C7FF3",
"I  c #7B7CFF",
"U  c #7F81DF",
"Y  c #8383DB",
"T  c #8888DB",
"R  c #8384E6",
"E  c #8A8DE5",
"W  c #8184EE",
"Q  c #8B8EEC",
"!  c #9696E1",
"~  c #9C9CE4",
"^  c #9194E9",
"/  c #9A9CE9",
"(  c #8385F2",
")  c #878BF7",
"_  c #8A8DF4",
"`  c #8C8CFF",
"'  c #8D90FD",
"]  c #9293F3",
"[  c #9599F3",
"{  c #989CF2",
"}  c #9C9EFC",
"|  c #9EA0F4",
" . c #9DA0FD",
".. c #A3A3E5",
"X. c #A3A3E9",
"o. c #A8A8EB",
"O. c #B4B4EC",
"+. c #A3A6F2",
"@. c #A6AAF3",
"#. c #ABADF4",
"$. c #A4A7FF",
"%. c #A6A9FD",
"&. c #ACADFE",
"*. c #AFB1F2",
"=. c #ADB0FC",
"-. c #B4B5F3",
";. c #B7B9F7",
":. c #BDBEF2",
">. c #B2B3FD",
",. c #B6BAFD",
"<. c #BABCFD",
"1. c #BEC2FD",
"2. c #C2C2F3",
"3. c #CBCBF7",
"4. c #C3C4FD",
"5. c #C6C9FF",
"6. c #CBCCFD",
"7. c #CED0FE",
"8. c #D4D4FC",
"9. c #D7D8FE",
"0. c #DADAFD",
"q. c #E1E0FF",
/* pixels */
". . . . . . . . . . . . . . . . . . . . ",
". . . . . . . o . . . . . . . . . o . . ",
". . . . . . . . . . . . . . . . . . . . ",
". . . . . . . . . . . . . . . . o . . . ",
". . . . . . o % , 8 < > % . . . . . . . ",
". . . . . . + i B R G n 8 + . . . . . o ",
". . . . . O - b +.<.&.( s @ .   . . . . ",
". . . . # 9 b / 4.4.&.( k @   . . . . . ",
". . . . , B @.4.7.4. .L t O . . o . . . ",
". . o 3 k Q 1.8.8.<.' S r O . . . . . . ",
". o 3 e V ] 1.8.8.,.I A w O   . . . . . ",
". O 5 Z K } 1.8.8.&.K y 5 o . . . . . . ",
". O r J ` >.6.0.8.&.K y 5 o     . . . . ",
". @ a W &.4.8.0.0.&.K y 5 O . . . . . . ",
"  @ d ] <.6.0.q.8.+.C e 7 9 9 < : @ o . ",
"  @ z | 4.7.0.q.8.~ a 4 s T ^ R n 8 + . ",
"  @ j +.5.8.0.q.8.~ p < M :.6.<._ z : O ",
". @ j +.5.7.0.0.8.:.T N ..8.0.7.*.R x a ",
"  # j +.5.8.0.0.0.3.2.2.3.8.0.8.5.#.] ( ",
"  # x #.6.8.8.0.8.0.6.6.7.8.0.0.8.4.>.$.",
"  # c -.0.0.0.0.0.4.>.%.<.8.0.0.8.4.,.>.",
". % v :.q.0.0.0.8.:._ P | 6.0.0.8.6.4.<.",
"  # v :.q.0.0.0.8.o.m l G ;.8.9.8.8.6.3.",
"  % v :.q.0.0.q.8.~ i : x @.5.8.8.0.8.8.",
"  % v -.0.0.0.q.8.! 1 # f o.5.7.0.0.8.0.",
"  @ j #.6.8.9.q.8.! 1 # f +.5.8.8.0.0.0.",
"  % h +.5.8.0.q.8.! 1 # g +.5.8.0.0.0.0.",
"  @ j +.5.8.0.q.8.! 1 % g +.5.8.8.0.8.9.",
". @ h +.5.8.9.q.8.! 1 % z +.5.8.0.0.8.0.",
"  @ g [ <.5.7.0.8.X.d 8 m @.5.8.0.0.0.0.",
". @ k P $.,.4.8.8.*.H D W #.4.3.0.0.q.q.",
". O 0 F ) %.1.7.8.4.} ' } <.3.8.8.3.2.:.",
". X * q m { 1.8.9.6.<.>.<.5.8.0.8...N v ",
". . . O u R <.7.8.8.8.7.7.8.0.0.2.M ; + ",
". . . . = j E *.6.9.0.0.0.0.3.O.T 2 @ . ",
". . . . O = i U ;.7.9.0.q.0.O.M 1 # X . ",
". . . . . . @ f ^ -.3.8.8.2.T 1 . . . . ",
". . . . . . X - f Y :.3.o.M 2 # . . . . ",
". . . . . . . o @ f ..2.Y , + X . . . . ",
". . . . . . . . . 2 ~ :.M #     . . . . "
};
