/* XPM */
static char *Free_Converter_com_7_58563833[] = {
/* columns rows colors chars-per-pixel */
"20 40 120 2 ",
"   c #00009E",
".  c #0101A3",
"X  c #0304AC",
"o  c #0C0DAE",
"O  c #1212AC",
"+  c #1A1AAE",
"@  c #0203B3",
"#  c #0506BC",
"$  c #0A0BBD",
"%  c #1213B7",
"&  c #1E1EB0",
"*  c #191ABC",
"=  c #1F20B7",
"-  c #2325BD",
";  c #2828BD",
":  c #3434BC",
">  c #3F3FBD",
",  c #3F40BE",
"<  c #4040BE",
"1  c #0709C2",
"2  c #0E0FC4",
"3  c #0306CD",
"4  c #0B0CCD",
"5  c #0E10C5",
"6  c #1A1CC1",
"7  c #0B0ED1",
"8  c #181AD0",
"9  c #1012DB",
"0  c #2426CE",
"q  c #292CCE",
"w  c #373ACF",
"e  c #2022D5",
"r  c #2C2ED0",
"t  c #2427DE",
"y  c #272ADF",
"u  c #3133D0",
"i  c #3B3DDB",
"p  c #0F12E4",
"a  c #1114E4",
"s  c #1C1EE3",
"d  c #1C1FE9",
"f  c #1518F1",
"g  c #2023E5",
"h  c #2124F2",
"j  c #2D31F2",
"k  c #3639F4",
"l  c #3135FD",
"z  c #3E40D5",
"x  c #3E40E3",
"c  c #4141C5",
"v  c #4A4AC2",
"b  c #4244CE",
"n  c #4F51CD",
"m  c #4042D5",
"M  c #4547DD",
"N  c #5253D0",
"B  c #5F61D4",
"V  c #6767CE",
"C  c #7070D0",
"Z  c #5256E3",
"A  c #5458E8",
"S  c #4549F6",
"D  c #4145FB",
"F  c #4D51F2",
"G  c #4E51FF",
"H  c #5457F5",
"J  c #5659F2",
"K  c #585BFF",
"L  c #5D60E3",
"P  c #6363E3",
"I  c #6E70EC",
"U  c #7677E3",
"Y  c #7678E3",
"T  c #787AE5",
"R  c #6265F3",
"E  c #666AFD",
"W  c #6A6CFB",
"Q  c #6C70F2",
"!  c #7478F3",
"~  c #7175FF",
"^  c #767AFE",
"/  c #7C7EFE",
"(  c #7E80E3",
")  c #7E81F1",
"_  c #7E82FA",
"`  c #8787DB",
"'  c #8285E3",
"]  c #898BE3",
"[  c #9293E3",
"{  c #9A9AE3",
"}  c #9C9DEF",
"|  c #8486FE",
" . c #8488FE",
".. c #8D90F7",
"X. c #8F92FD",
"o. c #9396F4",
"O. c #9595FB",
"+. c #9B9DFF",
"@. c #9DA1FE",
"#. c #A1A2EA",
"$. c #A6A9F3",
"%. c #ADAEF6",
"&. c #A2A4FD",
"*. c #A7AAFE",
"=. c #AAADFD",
"-. c #B7B9F7",
";. c #BCBCF1",
":. c #B3B4FD",
">. c #B7B8FD",
",. c #BABCFD",
"<. c #BFC1FD",
"1. c #CCCCF4",
"2. c #C3C5FD",
"3. c #C6C9FC",
"4. c #CBCCFC",
"5. c #CED0FE",
"6. c #D5D5FC",
"7. c #DADAFC",
"8. c #E3E3FF",
"9. c #EDEDFF",
/* pixels */
". . . . . . . . . . . . . . . . . . . . ",
". . . . . . . . . . . . . . . . . . . . ",
". . . . . . . .     .   .   .   . . .   ",
". . . X . . . . X . .   . X . X . . . . ",
"  o & : < < < < > > > > > > > > > : ; - ",
"  + < ` #.{ { { { { { { { { { { [ U P Z ",
"  + V ;.7.7.6.7.6.7.6.7.7.6.7.6.4.=.X.| ",
"  + C 1.9.9.9.8.8.9.8.8.9.8.8.8.7.2.:.=.",
"  + V ;.8.7.6.6.6.6.6.6.6.6.7.7.6.6.5.4.",
"  O v ` { #.{ { { { { { } &.:.3.7.7.7.7.",
"  o & : < < < < < < > c M H / :.6.8.7.7.",
". . . . . . . . . .   X 7 h K &.6.7.6.6.",
". . . . . . .         X 3 f G @.6.6.5.4.",
". . . . . . . . . . . X 4 h K *.6.5.2.-.",
". . . . . . . . . X @ 2 t S ^ :.5.<.*.+.",
". . . . . . . . . @ 4 g F _ *.3.4.=. .^ ",
". . . . . . X . X 5 g D ^ =.4.5.2.o.R F ",
". . . . . . X @ 7 y F ^ @.2.5.6.-.T i 0 ",
". . . . .   X 4 g S _ =.3.5.6.4.$.B & X ",
". . . . .   X 8 k E @.3.6.6.4.,.o.n O   ",
". . . . .   o r J  .:.5.7.6.2.=.' b O . ",
"X . . . . X % z ! @.2.7.8.7.2.O.Q w o   ",
". . . . X 1 e A ..:.4.6.7.6.,.X.R u o . ",
". . . . # 9 j E &.<.6.6.8.6.>.| J r o . ",
". . . . # a l ~ :.6.6.7.7.7.%.I i 6 X . ",
". . . . # p l ^ ,.7.6.6.8.6.#.N * o . . ",
". . . . $ s D | 2.7.7.7.7.6.{ > . . . . ",
"X . . . * x W @.1.7.7.7.8.6.{ > .   . . ",
". . . . ; P O.>.5.7.6.7.8.6.{ < . . . . ",
". . . . : U =.2.6.7.7.7.7.6.{ < . . . . ",
". . . . : ' :.4.6.6.6.7.8.6.{ < . . . . ",
". . . . : ' >.5.6.7.7.7.8.6.{ < . . . . ",
". . . . : ' ,.5.6.7.7.7.7.6.{ > X   . . ",
". . . . : ' <.5.6.7.7.7.8.6.{ > . . . . ",
". . . . : ] 2.5.6.7.6.6.7.6.{ > . . . . ",
". . . . > [ 5.7.7.7.7.7.8.6.{ > . . . . ",
". .   . < { 6.8.7.7.7.6.8.6.{ > . . . . ",
". . . X < { 6.8.6.7.6.7.8.6.{ > . . . . ",
". . . . < { 6.7.7.7.7.7.7.6.{ > . . . . ",
". . . . < { 6.8.7.6.6.7.8.6.{ > . . . . "
};
