/* XPM */
static char *_8060e03f91b48a6e91b97773c3f7fef[] = {
/* columns rows colors chars-per-pixel */
"20 40 133 2 ",
"   c #00009F",
".  c #0101A3",
"X  c #0C0CA6",
"o  c #0606A9",
"O  c #0C0DAD",
"+  c #0F10AE",
"@  c #1314AC",
"#  c #1718AF",
"$  c #1A1AAE",
"%  c #1011B7",
"&  c #191AB2",
"*  c #1B1CBB",
"=  c #1F20BC",
"-  c #2E2EB6",
";  c #2122BB",
":  c #2728BE",
">  c #2A2BB9",
",  c #2F30B6",
"<  c #2F30B9",
"1  c #3132BB",
"2  c #3A3ABB",
"3  c #4646BF",
"4  c #2627C3",
"5  c #2426C9",
"6  c #2628CA",
"7  c #3032C5",
"8  c #3738C6",
"9  c #3435CA",
"0  c #3739CF",
"q  c #3E3FCE",
"w  c #3739D0",
"e  c #3C3FE1",
"r  c #3E40CE",
"t  c #4041C2",
"y  c #4648C6",
"u  c #4949C1",
"i  c #4B4CCE",
"p  c #5252C5",
"a  c #5557CC",
"s  c #5658CC",
"d  c #5A5BCC",
"f  c #4345D0",
"g  c #484AD0",
"h  c #4C4EDC",
"j  c #5354D0",
"k  c #5A5CDD",
"l  c #6666CE",
"z  c #6969CF",
"x  c #6062D2",
"c  c #6769D6",
"v  c #6D6DD0",
"b  c #6C6EDB",
"n  c #7474D3",
"m  c #7A7AD6",
"M  c #7779DB",
"N  c #787ADB",
"B  c #4A4DE8",
"V  c #4E51E3",
"C  c #5255E1",
"Z  c #5F61E2",
"A  c #5D61FB",
"S  c #6265E6",
"D  c #6568E6",
"F  c #6366E8",
"G  c #6D71E9",
"H  c #7376E1",
"J  c #7476EA",
"K  c #7678EB",
"L  c #6C6FF3",
"P  c #777AF3",
"I  c #787BF1",
"U  c #7073FB",
"Y  c #797BFF",
"T  c #7D80DF",
"R  c #7F82E1",
"E  c #8484DA",
"W  c #8989DB",
"Q  c #8487E4",
"!  c #878AE4",
"~  c #8C8EE6",
"^  c #8B8DEC",
"/  c #8F91EC",
"(  c #9494E2",
")  c #9999E1",
"_  c #9093E9",
"`  c #898BF2",
"'  c #8185FB",
"]  c #8689FB",
"[  c #888AFF",
"{  c #8D90F5",
"}  c #8F92FB",
"|  c #9496F1",
" . c #979BF4",
".. c #9A9CF4",
"X. c #9395FB",
"o. c #979BFF",
"O. c #9B9DFC",
"+. c #9FA1F6",
"@. c #9DA0FB",
"#. c #A2A2E6",
"$. c #A3A4E9",
"%. c #A6A8EE",
"&. c #AAABEB",
"*. c #B0AFEA",
"=. c #B3B2EC",
"-. c #BABAEF",
";. c #A3A6F1",
":. c #A5A9F3",
">. c #AAACF5",
",. c #A2A4FF",
"<. c #ABADFC",
"1. c #AEB1F6",
"2. c #AFB1FF",
"3. c #B3B5F3",
"4. c #BDBDF1",
"5. c #B4B6FE",
"6. c #B7BAFD",
"7. c #BBBDFD",
"8. c #BDC0FC",
"9. c #C3C3F3",
"0. c #C8C7F4",
"q. c #C7C8F5",
"w. c #CCCCF7",
"e. c #C3C5FC",
"r. c #C7C9FE",
"t. c #CCCDFD",
"y. c #CFD0FE",
"u. c #D4D5FD",
"i. c #D8D7FB",
"p. c #D7D8FD",
"a. c #DADAFD",
"s. c #E0DFFF",
"d. c #E2E2FF",
/* pixels */
". . . . . . . o . . .     . . . . . . . ",
". . . . . . . . . X @ $ $ $ # @ O o . . ",
". . . . . . . .   $ 3 z v z d g 9 * o   ",
". . . . . . . . o 2 W 4.0.4.>.` D 9 O . ",
". . . . . . o & 2 n =.a.d.a.y.2.{ k 7 * ",
". . . . . . @ u W =.w.s.d.a.p.t.3.` F C ",
". . . . o X < n 4.u.u.y.p.p.a.a.t.<.X.' ",
". . . . $ u M $.e.r.6.5.e.u.s.a.u.e.5.<.",
". . . o 2 W 4.r.8.<.X.} 2.w.a.a.i.u.y.y.",
". o # 2 v =.p.u.7. .G D / 8.p.p.i.a.a.a.",
". @ y W =.y.p.u.7.^ i 8 b 1.y.u.i.a.a.a.",
"  $ l -.a.a.u.y.6.R < $ a ;.r.u.i.a.p.p.",
"  $ v 9.d.d.u.y.6.T , $ a ;.r.y.a.p.d.s.",
". $ z 4.d.a.u.y.8.T < $ a ;.r.u.i.i.i.i.",
"  $ z 9.d.a.p.u.e._ i 8 b 1.y.a.u.4.) ) ",
"  $ z 9.d.a.p.p.w.>.K D ^ 8.a.d.w.W p 2 ",
". # l 3.p.p.a.a.u.8.O.X.1.w.a.w.&.d $   ",
". @ j ..e.u.a.a.p.t.7.6.r.u.-.W s - X   ",
"  + q I ,.e.u.a.p.u.y.w.p.u.#.p $ o . . ",
"  O 4 h K +.8.t.u.a.a.a.s.p.&.z 1 # o   ",
". . + ; f J O.6.y.a.a.a.a.p.q.*.E 3 @   ",
". . . . 4 Z } 6.y.a.a.a.p.p.a.a.9.n , X ",
". . . . < H <.r.i.a.y.y.u.p.s.d.u.#.m z ",
". . . o 2 ( t.a.i.w.e.8.r.u.p.a.i.0.9.4.",
". o $ 2 v *.i.y.8.>._ ~ :.q.y.p.a.a.a.d.",
"  @ 3 W =.w.y.7.@.I i y N 1.y.p.a.a.a.a.",
"  $ l 4.a.s.y.2.[ C = $ d ;.r.y.a.a.a.a.",
". $ v 9.d.d.y.<.R C & # s ;.r.y.i.a.i.i.",
"  $ l 4.d.s.t.2.] C * # d ;.r.u.i.i.i.i.",
". $ z 9.d.d.y.6.X.Z ; # s ;.r.y.i.a.i.i.",
"  $ z 9.s.s.u.r.<.H > # a ;.r.u.p.i.p.p.",
"  $ l 4.a.a.u.y.8.W r > x :.r.u.i.a.i.a.",
". # l 3.p.a.p.p.t.%.N c Q 1.e.y.p.a.a.a.",
"  # d ;.r.y.p.p.u.r.3.:.>.6.e.y.p.p.p.p.",
". @ i { 5.t.a.a.i.i.t.r.e.e.t.u.p.y.e.e.",
". O w L O.e.a.s.a.i.u.u.u.y.u.a.u.7.,.o.",
". o 5 B P <.r.y.y.u.i.i.p.p.y.q.3.| I L ",
". o % 6 h I o.<.6.e.w.i.s.i.-.W l i q 0 ",
". . . O 5 B U [ O.5.t.i.s.i.#.p $ @ + + ",
". . . . * e A Y X.<.r.i.d.i.) 2 .       "
};
