/* XPM */
static char *_70dfe0340ef48d9f288c1abc29bfd8c[] = {
/* columns rows colors chars-per-pixel */
"20 40 126 2 ",
"   c #00009F",
".  c #0000A3",
"X  c #0A0AA7",
"o  c #0404AD",
"O  c #0C0CAB",
"+  c #1414AD",
"@  c #1A1AAE",
"#  c #0F0FBD",
"$  c #1C1CB2",
"%  c #1111BD",
"&  c #1A1BBC",
"*  c #2020AF",
"=  c #2729B6",
"-  c #2C2CB5",
";  c #2323BB",
":  c #2929BC",
">  c #2F31BC",
",  c #3637BD",
"<  c #3B3BBC",
"1  c #1F1FC2",
"2  c #1616CE",
"3  c #1C1CCF",
"4  c #2B2BC6",
"5  c #2C2CCC",
"6  c #3435C3",
"7  c #393AC3",
"8  c #3030CF",
"9  c #3B3CCE",
"0  c #2A2ADE",
"q  c #2F30D5",
"w  c #3030D2",
"e  c #2B2AE3",
"r  c #3E3FE3",
"t  c #3636F2",
"y  c #4B4BC2",
"u  c #4444CF",
"i  c #4C4CCE",
"p  c #4F50CC",
"a  c #5252C4",
"s  c #5354CD",
"d  c #5758CF",
"f  c #5C5DCC",
"g  c #5454D1",
"h  c #5B5DD4",
"j  c #6666CD",
"k  c #6969CF",
"l  c #6464D1",
"z  c #6D6DD1",
"x  c #6262DC",
"c  c #6F6FDB",
"v  c #7272D2",
"b  c #7878D5",
"n  c #7174DD",
"m  c #7878DB",
"M  c #4242E6",
"N  c #4F50E9",
"B  c #5154E2",
"V  c #4444F2",
"C  c #4A4AF3",
"Z  c #5353FC",
"A  c #5859FD",
"S  c #6366E3",
"D  c #6669E6",
"F  c #7575E4",
"G  c #7578E3",
"H  c #7477E9",
"J  c #7D7DEE",
"K  c #6060F2",
"L  c #6263FB",
"P  c #6A6BFE",
"I  c #7678F7",
"U  c #7576FF",
"Y  c #7F7EFE",
"T  c #7D80DF",
"R  c #7E81E1",
"E  c #7E82FB",
"W  c #8586DC",
"Q  c #8989DC",
"!  c #8487E3",
"~  c #8386E9",
"^  c #8B8BEC",
"/  c #8F91E3",
"(  c #8F91E9",
")  c #9797E2",
"_  c #9D9DE4",
"`  c #9294EC",
"'  c #8181F2",
"]  c #8C8EF2",
"[  c #8284FC",
"{  c #868AFC",
"}  c #8C8DFD",
"|  c #9395F1",
" . c #9A9CF4",
".. c #9294FD",
"X. c #9699FD",
"o. c #9C9EFD",
"O. c #9DA0F1",
"+. c #9CA0FF",
"@. c #A3A3E4",
"#. c #A6A6E8",
"$. c #ACACE9",
"%. c #B4B4ED",
"&. c #A2A4F3",
"*. c #A6AAF7",
"=. c #AAADF3",
"-. c #A3A6FC",
";. c #A5A9FF",
":. c #ABADFD",
">. c #B3B3F5",
",. c #B7B9F4",
"<. c #BEBEF2",
"1. c #B3B4FD",
"2. c #B7BAFC",
"3. c #BABDFC",
"4. c #BEC1FC",
"5. c #C2C2F4",
"6. c #CBCBF6",
"7. c #C4C5FC",
"8. c #C7C9FD",
"9. c #CBCCFC",
"0. c #CED0FE",
"q. c #D4D4FC",
"w. c #D7D8FD",
"e. c #DBDBFD",
"r. c #E0DFFF",
"t. c #E3E3FF",
/* pixels */
". . . . . . . . . .     . . . . . . . . ",
". . . . . . . . . X + + O . . . . . . . ",
". . . . . . . .   * a f < X     . . . . ",
". . . . . . . . X < Q @.k @ . . . . . . ",
". . . . . . X @ < z %.6.) a = O . . . . ",
". . . . . . O y Q %.6.w.5._ k - . . . . ",
". . . . . X > b <.e.e.w.e.q._ p + X . . ",
". . .   $ y b $.q.t.t.e.t.e.<.W s = X . ",
". . . X < W <.q.q.w.w.w.w.w.9.,.( p @ . ",
". X @ , v %.e.e.q.6.7.7.9.q.w.q.>.n 6 & ",
"  O y W %.6.w.q.7.1.-.o.3.q.e.e.7.` D B ",
"  @ j ,.e.e.q.9.4.-.{ [ *.6.e.e.0.:.} E ",
"  $ z 5.t.t.w.9.3.o.U P X.8.e.e.q.3.;.+.",
"  $ k <.r.e.q.9.3...L A } 8.e.e.q.7.2.1.",
"  @ k <.r.e.w.0.3.] N M J 5.e.e.q.8.4.2.",
"  @ k <.r.e.q.0.3.! 9 4 c 4.t.e.q.7.4.2.",
". @ k <.r.e.w.0.3.T > $ j <.r.e.q.9.4.4.",
". @ k <.r.e.q.0.3.T - @ j <.r.r.w.0.8.6.",
"  $ k <.r.r.w.0.3.T > $ j <.r.w.w.q.q.q.",
"  @ j ,.w.w.w.0.7./ i 7 b 5.r.e.w.w.e.e.",
"  @ f =.0.w.w.w.0.=.F D | 6.w.e.w.e.w.w.",
"  + d &.8.q.w.e.w.3.o...:.6.e.e.w.w.w.q.",
". + g  .4.0.e.e.w.0.4.3.6.q.w.w.q.0.6.8.",
"  + i ] 1.6.q.e.w.q.0.9.q.w.w.w.q.6.4.4.",
". O 6 x ^ >.8.w.w.6.$.@.%.q.e.w.q.8.3.2.",
". . + - g ^ 2.0.w.$.k a W 6.r.e.q.8.4.3.",
". . . . : x ] >.,.W , : k <.r.e.q.7.3.2.",
". . . . + 6 i l k s 5 w F 5.r.r.q.7.1.=.",
". . . . o O + + @ 1 e V ] 7.r.e.0.2.-.o.",
". . . . . . .   . % e Z } 7.e.q.8.*.} Y ",
". . . . . . .   . % e Z } 8.w.q.2.} P A ",
". . . . . . .   . % e A ..8.q.8.:.I V t ",
". . . . . . . . . & r P +.6.w.8.*.D w 2 ",
". . . . . . . . . 1 B E :.0.w.8.&.h $ o ",
". . o . . . .   . 4 S X.3.0.q.7.&.s +   ",
". . . . . . . . . > G :.8.0.0.3.| p +   ",
". . . . . . . . . , ! 3.q.q.8.:.' u + . ",
". . . . . . . . . < / 6.e.w.3.} K 8 O . ",
". o . . . . . . o < ) q.r.w.1.U V 3 O . ",
". . . . . o . . X < _ w.t.w.:.P t 3 o   "
};
