/* XPM */
static char *Free_Converter_com_infinity_22681837[] = {
/* columns rows colors chars-per-pixel */
"40 20 129 2 ",
"   c #00009F",
".  c #0101A3",
"X  c #0C0CA6",
"o  c #0606A9",
"O  c #0C0DAD",
"+  c #0F10AE",
"@  c #1314AC",
"#  c #1718AF",
"$  c #1A1AAE",
"%  c #1011B7",
"&  c #191AB2",
"*  c #1B1CBB",
"=  c #1F20BC",
"-  c #2E2EB6",
";  c #2122BB",
":  c #2728BE",
">  c #2A2BB9",
",  c #2F30B6",
"<  c #2F30B9",
"1  c #3132BB",
"2  c #3A3ABB",
"3  c #4646BF",
"4  c #2627C3",
"5  c #2426C9",
"6  c #2628CA",
"7  c #3032C5",
"8  c #3738C6",
"9  c #3435CA",
"0  c #3739CF",
"q  c #3E3FCE",
"w  c #3739D0",
"e  c #3C3FE1",
"r  c #3E40CE",
"t  c #4648C6",
"y  c #4949C1",
"u  c #4B4CCE",
"i  c #5252C5",
"p  c #5557CC",
"a  c #5658CC",
"s  c #5A5BCC",
"d  c #4345D0",
"f  c #484AD0",
"g  c #4C4EDC",
"h  c #5354D0",
"j  c #5A5CDD",
"k  c #6666CE",
"l  c #6969CF",
"z  c #6062D2",
"x  c #6769D6",
"c  c #6D6DD0",
"v  c #6C6EDB",
"b  c #7474D3",
"n  c #7A7AD6",
"m  c #7779DB",
"M  c #787ADB",
"N  c #4A4DE8",
"B  c #4E51E3",
"V  c #5255E1",
"C  c #5F61E2",
"Z  c #5D61FB",
"A  c #6265E6",
"S  c #6568E6",
"D  c #6D71E9",
"F  c #7376E1",
"G  c #7476EA",
"H  c #7678EB",
"J  c #6C6FF3",
"K  c #777AF3",
"L  c #787BF1",
"P  c #7073FB",
"I  c #797BFF",
"U  c #7F82E1",
"Y  c #8484DA",
"T  c #8989DC",
"R  c #8487E4",
"E  c #878AE4",
"W  c #8C8EE6",
"Q  c #8F91EC",
"!  c #9494E2",
"~  c #9999E1",
"^  c #9093E9",
"/  c #898BF2",
"(  c #8185FB",
")  c #8689FB",
"_  c #888AFF",
"`  c #8D90F5",
"'  c #8F92FB",
"]  c #9496F1",
"[  c #979BF4",
"{  c #9A9CF4",
"}  c #9395FB",
"|  c #979BFF",
" . c #9B9DFC",
".. c #9FA1F6",
"X. c #9DA0FB",
"o. c #A2A2E6",
"O. c #A3A4E9",
"+. c #A6A8EE",
"@. c #AAABEB",
"#. c #B0AFEA",
"$. c #B3B2EC",
"%. c #BABAEF",
"&. c #A3A6F1",
"*. c #A5A9F3",
"=. c #AAACF4",
"-. c #A2A4FF",
";. c #ABADFC",
":. c #AEB1F6",
">. c #AFB1FF",
",. c #B3B5F3",
"<. c #BDBDF1",
"1. c #B4B6FE",
"2. c #B7BAFD",
"3. c #BBBDFD",
"4. c #BDC0FC",
"5. c #C3C3F3",
"6. c #C8C7F4",
"7. c #C7C8F5",
"8. c #CCCCF7",
"9. c #C3C5FC",
"0. c #C7C9FE",
"q. c #CCCDFD",
"w. c #CFD0FE",
"e. c #D4D5FD",
"r. c #D8D7FB",
"t. c #D7D8FD",
"y. c #DADAFD",
"u. c #E0DFFF",
"i. c #E2E2FF",
/* pixels */
". . . . . . .   .   .     .   . . . . . . .   .         .   . . . . . o . . . . ",
". . o O O @ # # # # $ $ $ # @ o . . . . X + # # # # $ # # @ o . . . . . . . . . ",
". . % 5 0 u s z k l l l c k 3 # .   . O 4 q h k c l l c l 3 # . . . . . . . . o ",
". O 6 N J ` +.,.<.<.5.<.6.<.T 2 o . o ; g K { ,.5.<.5.5.<.T 2 o . . . . o . . . ",
"* 4 g K | 1.0.t.u.i.i.i.i.u.$.c 2 < : d H -.9.e.i.i.u.i.y.$.c 2 $ o . . o . . . ",
"e N K =.9.q.e.t.y.y.y.i.i.y.8.#.! F C G ..9.e.y.y.u.y.u.y.8.$.T y X   . . . . . ",
"Z P  .0.y.t.t.t.t.w.e.q.w.w.w.t.q.;.' | 3.t.y.r.t.t.t.t.e.t.y.<.b , @ o . . . . ",
"I _ ;.e.u.y.t.t.q.0.2.>.;.>.4.t.t.0.2.3.q.y.y.y.t.w.w.w.w.w.t.9.O.n 3 # . . . . ",
"'  .1.e.t.y.e.q.3.=.} ) U _ X.4.e.e.q.e.t.t.t.t.w.9.3.2.3.3.3.4.9.<.T 2 o . . . ",
";.1.9.e.t.t.9.@.E F C V B V H =.w.y.y.y.r.t.q.4.=.^ R M Y E [ ;.0.t.$.c 2 $ o . ",
"9.q.q.r.e.q.,.M r > ; = * = u ^ 5.e.r.y.t.w.3. .G u 1 , < f D } 2.w.8.$.T 3 @   ",
"r.r.r.r.e.0.*.x - $ # # # # t W 4.w.e.y.y.e.1.' S 8 # $ & 8 S ' 2.e.u.u.<.l $   ",
"i.i.u.r.w.9.:.R s a a a a a m +.0.e.e.y.u.y.0.=.Q v p p p v Q ;.9.e.u.i.6.c # . ",
"r.r.r.r.w.9.2.:.*.+.&.&.&.&.,.0.e.y.y.r.e.r.w.w.4.:.&...&.:.4.w.t.t.y.u.<.l #   ",
"~ o.%.e.r.0.9.9.0.0.0.0.0.0.w.e.y.y.y.7.@.O.%.r.y.w.0.0.0.w.r.y.y.y.t.q.=.s # . ",
"2 i T 6.y.e.w.w.e.w.e.e.e.w.e.t.y.u.y.#.l i T 8.i.y.e.w.e.e.r.y.y.y.0.2./ u @   ",
". $ k ,.e.t.r.r.y.r.t.r.r.y.y.y.r.e.<.Y , $ s @.8.r.r.r.r.y.r.r.t.q.1.` A 7 O . ",
"  + u ] 4.w.y.y.t.r.y.y.y.y.y.y.8.O.b 3 # o , s T %.r.y.y.r.y.e.0.;./ j 9 * o . ",
"  + r L X.0.t.y.r.t.r.t.r.r.y.i.5.n , X o . X $ i o.r.i.y.y.y.8.1.' A 7 O o . . ",
"  + w J | 4.r.y.y.r.t.r.r.r.y.y.<.l @     .   . 2 ~ e.y.y.y.y.w.;.( V = .   . . "
};
