/* XPM */
static char *_497515805099[] = {
/* columns rows colors chars-per-pixel */
"126 105 21 1 ",
"  c gray22",
". c #484848",
"X c gray33",
"o c #646464",
"O c #7C7C7C",
"+ c #885830",
"@ c #9C6038",
"# c #B47044",
"$ c #BC7848",
"% c #E88C58",
"& c #FC9C60",
"* c gray66",
"= c #FCB080",
"- c #FCB890",
"; c #FCBC9C",
": c #FCCCB0",
"> c #C0C0C0",
", c #D0D0D0",
"< c gainsboro",
"1 c None",
"2 c None",
/* pixels */
"222222222222222222222222222222222222222222222222222222222222222222222222222222222222222222222222222222222222222222222222222222",
"222222222222222222222222222222222222222222222222222222222222222222222222222222222222222222222222222222222222222222222222222222",
"222222222222222222222222222222222222222222222222222222222222222222222222222222222222222222222222222222222222222222222222222222",
"222222222222222222222222222222222222222222222222222222222222222222222222222222222222222222222222222222222222222222222222222222",
"222222222222222222222222222222222222222222222222222222222222222222222222222222222222222222222222222222222222222222222222222222",
"222222222222222222222222222222222222222222222222222222222222222222222222222222222222222222222222222222222222222222222222222222",
"222222222222222222222222222222222222222222222222222222222222222222222222222222222222222222222222222222222222222222222222222222",
"222222222222222222222XXXXXXX22222222222222222222222222222222222222222222222222222222222222222222222222222222222222222222222222",
"222222222222222222222XXXXXXX22222222222222222222222222222222222222222222222222222222222222222222222222222222222222222222222222",
"222222222222222222222XXXXXXX22222222222222222222222222222222222222222222222222222222222222222222222222222222222222222222222222",
"222222222222222222222XXXXXXX22222222222222222222222222222222222222222222222222222222222222222222222222222222222222222222222222",
"222222222222222222222XXXXXXX22222222222222222222222222222222222222222222222222222222222222222222222222222222222222222222222222",
"222222222222222222222XXXXXXX22222222222222222222222222222222222222222222222222222222222222222222222222222222222222222222222222",
"222222222222222222222XXXXXXX22222222222222222222222222222222222222222222222222222222222222222222222222222222222222222222222222",
"222222222222222222222*******XXXXXXX2222222222222222222222222222222222222222222222222222222222222222222222222222222222222222222",
"222222222222222222222*******XXXXXXX2222222222222222222222222222222222222222222222222222222222222222222222222222222222222222222",
"222222222222222222222*******XXXXXXX2222222222222222222222222222222222222222222222222222222222222222222222222222222222222222222",
"222222222222222222222*******XXXXXXX2222222222222222222222222222222222222222222222222222222222222222222222222222222222222222222",
"222222222222222222222*******XXXXXXX2222222222222222222222222222222222222222222222222222222222222222222222222222222222222222222",
"222222222222222222222*******XXXXXXX2222222222222222222222222222222222222222222222222222222222222222222222222222222222222222222",
"222222222222222222222*******XXXXXXX2222222222222222222222222222222222222222222222222222222222222222222222222222222222222222222",
"222222222222222222222**************XXXXXXX222222222222222222222222222222222222222222222222222222222222222222222222222222222222",
"222222222222222222222**************XXXXXXX222222222222222222222222222222222222222222222222222222222222222222222222222222222222",
"222222222222222222222**************XXXXXXX222222222222222222222222222222222222222222222222222222222222222222222222222222222222",
"222222222222222222222**************XXXXXXX222222222222222222222222222222222222222222222222222222222222222222222222222222222222",
"222222222222222222222**************XXXXXXX222222222222222222222222222222222222222222222222222222222222222222222222222222222222",
"222222222222222222222**************XXXXXXX222222222222222222222222222222222222222222222222222222222222222222222222222222222222",
"222222222222222222222**************XXXXXXX222222222222222222222222222222222222222222222222222222222222222222222222222222222222",
"222222222222222222222>>>>>>>**************XXXXXXX22222222222222222222222222222222222222222222222222222222222222222222222222222",
"222222222222222222222>>>>>>>**************XXXXXXX22222222222222222222222222222222222222222222222222222222222222222222222222222",
"222222222222222222222>>>>>>>**************XXXXXXX22222222222222222222222222222222222222222222222222222222222222222222222222222",
"222222222222222222222>>>>>>>**************XXXXXXX22222222222222222222222222222222222222222222222222222222222222222222222222222",
"222222222222222222222>>>>>>>**************XXXXXXX22222222222222222222222222222222222222222222222222222222222222222222222222222",
"222222222222222222222>>>>>>>**************XXXXXXX22222222222222222222222222222222222222222222222222222222222222222222222222222",
"222222222222222222222>>>>>>>**************XXXXXXX22222222222222222222222222222222222222222222222222222222222222222222222222222",
"222222222222222222222<<<<<<<*********************XXXXXXX2222222222222222222222222222222222222222222222222222222222222222222222",
"222222222222222222222<<<<<<<*********************XXXXXXX2222222222222222222222222222222222222222222222222222222222222222222222",
"222222222222222222222<<<<<<<*********************XXXXXXX2222222222222222222222222222222222222222222222222222222222222222222222",
"222222222222222222222<<<<<<<*********************XXXXXXX2222222222222222222222222222222222222222222222222222222222222222222222",
"222222222222222222222<<<<<<<*********************XXXXXXX2222222222222222222222222222222222222222222222222222222222222222222222",
"222222222222222222222<<<<<<<*********************XXXXXXX2222222222222222222222222222222222222222222222222222222222222222222222",
"222222222222222222222<<<<<<<*********************XXXXXXX2222222222222222222222222222222222222222222222222222222222222222222222",
"2222222222222222222222222222>>>>>>>*********************XXXXXXX222222222222222222222222222222222222222222222222222222222222222",
"2222222222222222222222222222>>>>>>>*********************XXXXXXX222222222222222222222222222222222222222222222222222222222222222",
"2222222222222222222222222222>>>>>>>*********************XXXXXXX222222222222222222222222222222222222222222222222222222222222222",
"2222222222222222222222222222>>>>>>>*********************XXXXXXX222222222222222222222222222222222222222222222222222222222222222",
"2222222222222222222222222222>>>>>>>*********************XXXXXXX222222222222222222222222222222222222222222222222222222222222222",
"2222222222222222222222222222>>>>>>>*********************XXXXXXX222222222222222222222222222222222222222222222222222222222222222",
"2222222222222222222222222222>>>>>>>*********************XXXXXXX222222222222222222222222222222222222222222222222222222222222222",
"2222222222222222222222222222<<<<<<<*********************OOOOOOOXXXXXXX22222222222222222222222222222222222222222222222222222222",
"2222222222222222222222222222<<<<<<<*********************OOOOOOOXXXXXXX22222222222222222222222222222222222222222222222222222222",
"2222222222222222222222222222<<<<<<<*********************OOOOOOOXXXXXXX22222222222222222222222222222222222222222222222222222222",
"2222222222222222222222222222<<<<<<<*********************OOOOOOOXXXXXXX22222222222222222222222222222222222222222222222222222222",
"2222222222222222222222222222<<<<<<<*********************OOOOOOOXXXXXXX22222222222222222222222222222222222222222222222222222222",
"2222222222222222222222222222<<<<<<<*********************OOOOOOOXXXXXXX22222222222222222222222222222222222222222222222222222222",
"2222222222222222222222222222<<<<<<<*********************OOOOOOOXXXXXXX22222222222222222222222222222222222222222222222222222222",
"22222222222222222222222222222222222>>>>>>>*********************OOOOOOOXXXXXXX2222222222222222222222222222222222222222222222222",
"22222222222222222222222222222222222>>>>>>>*********************OOOOOOOXXXXXXX2222222222222222222222222222222222222222222222222",
"22222222222222222222222222222222222>>>>>>>*********************OOOOOOOXXXXXXX2222222222222222222222222222222222222222222222222",
"22222222222222222222222222222222222>>>>>>>*********************OOOOOOOXXXXXXX2222222222222222222222222222222222222222222222222",
"22222222222222222222222222222222222>>>>>>>*********************OOOOOOOXXXXXXX2222222222222222222222222222222222222222222222222",
"22222222222222222222222222222222222>>>>>>>*********************OOOOOOOXXXXXXX2222222222222222222222222222222222222222222222222",
"22222222222222222222222222222222222>>>>>>>*********************OOOOOOOXXXXXXX2222222222222222222222222222222222222222222222222",
"22222222222222222222222222222222222<<<<<<<>>>>>>>*********************OOOOOOOXXXXXXX222222222222222222222222222222222222222222",
"22222222222222222222222222222222222<<<<<<<>>>>>>>*********************OOOOOOOXXXXXXX222222222222222222222222222222222222222222",
"22222222222222222222222222222222222<<<<<<<>>>>>>>*********************OOOOOOOXXXXXXX222222222222222222222222222222222222222222",
"22222222222222222222222222222222222<<<<<<<>>>>>>>*********************OOOOOOOXXXXXXX222222222222222222222222222222222222222222",
"22222222222222222222222222222222222<<<<<<<>>>>>>>*********************OOOOOOOXXXXXXX222222222222222222222222222222222222222222",
"22222222222222222222222222222222222<<<<<<<>>>>>>>*********************OOOOOOOXXXXXXX222222222222222222222222222222222222222222",
"22222222222222222222222222222222222<<<<<<<>>>>>>>*********************OOOOOOOXXXXXXX222222222222222222222222222222222222222222",
"222222222222222222222222222222222222222222<<<<<<<****************************OOOOOOOXXXXXXX22222222222222222222222222222222222",
"222222222222222222222222222222222222222222<<<<<<<****************************OOOOOOOXXXXXXX22222222222222222222222222222222222",
"222222222222222222222222222222222222222222<<<<<<<****************************OOOOOOOXXXXXXX22222222222222222222222222222222222",
"222222222222222222222222222222222222222222<<<<<<<****************************OOOOOOOXXXXXXX22222222222222222222222222222222222",
"222222222222222222222222222222222222222222<<<<<<<****************************OOOOOOOXXXXXXX22222222222222222222222222222222222",
"222222222222222222222222222222222222222222<<<<<<<****************************OOOOOOOXXXXXXX22222222222222222222222222222222222",
"222222222222222222222222222222222222222222<<<<<<<****************************OOOOOOOXXXXXXX22222222222222222222222222222222222",
"22222222222222222222222222222222222OOOOOOOoooooooooooooo......................................................................",
"22222222222222222222222222222222222OOOOOOOoooooooooooooo......................................................................",
"22222222222222222222222222222222222OOOOOOOoooooooooooooo......................................................................",
"22222222222222222222222222222222222OOOOOOOoooooooooooooo......................................................................",
"22222222222222222222222222222222222OOOOOOOoooooooooooooo......................................................................",
"22222222222222222222222222222222222OOOOOOOoooooooooooooo......................................................................",
"22222222222222222222222222222222222OOOOOOOoooooooooooooo......................................................................",
"22222222222222XXXXXXX.......              &&&&&&&-------::::::::::::::;;;;;;;=======&&&&&&&$$$$$$$@@@@@@@              .......",
"22222222222222XXXXXXX.......              &&&&&&&-------::::::::::::::;;;;;;;=======&&&&&&&$$$$$$$@@@@@@@              .......",
"22222222222222XXXXXXX.......              &&&&&&&-------::::::::::::::;;;;;;;=======&&&&&&&$$$$$$$@@@@@@@              .......",
"22222222222222XXXXXXX.......              &&&&&&&-------::::::::::::::;;;;;;;=======&&&&&&&$$$$$$$@@@@@@@              .......",
"22222222222222XXXXXXX.......              &&&&&&&-------::::::::::::::;;;;;;;=======&&&&&&&$$$$$$$@@@@@@@              .......",
"22222222222222XXXXXXX.......              &&&&&&&-------::::::::::::::;;;;;;;=======&&&&&&&$$$$$$$@@@@@@@              .......",
"22222222222222XXXXXXX.......              &&&&&&&-------::::::::::::::;;;;;;;=======&&&&&&&$$$$$$$@@@@@@@              .......",
"2222222XXXXXXX              +++++++&&&&&&&:::::::::::::::::::::::::::::::::::-------=======&&&&&&&%%%%%%%#######       .......",
"2222222XXXXXXX              +++++++&&&&&&&:::::::::::::::::::::::::::::::::::-------=======&&&&&&&%%%%%%%#######       .......",
"2222222XXXXXXX              +++++++&&&&&&&:::::::::::::::::::::::::::::::::::-------=======&&&&&&&%%%%%%%#######       .......",
"2222222XXXXXXX              +++++++&&&&&&&:::::::::::::::::::::::::::::::::::-------=======&&&&&&&%%%%%%%#######       .......",
"2222222XXXXXXX              +++++++&&&&&&&:::::::::::::::::::::::::::::::::::-------=======&&&&&&&%%%%%%%#######       .......",
"2222222XXXXXXX              +++++++&&&&&&&:::::::::::::::::::::::::::::::::::-------=======&&&&&&&%%%%%%%#######       .......",
"2222222XXXXXXX              +++++++&&&&&&&:::::::::::::::::::::::::::::::::::-------=======&&&&&&&%%%%%%%#######       .......",
"2222222.......              %%%%%%%-------:::::::::::::::::::::::::::::::::::;;;;;;;==============&&&&&&&%%%%%%%$$$$$$$1111111",
"2222222.......              %%%%%%%-------:::::::::::::::::::::::::::::::::::;;;;;;;==============&&&&&&&%%%%%%%$$$$$$$1111111",
"2222222.......              %%%%%%%-------:::::::::::::::::::::::::::::::::::;;;;;;;==============&&&&&&&%%%%%%%$$$$$$$1111111",
"2222222.......              %%%%%%%-------:::::::::::::::::::::::::::::::::::;;;;;;;==============&&&&&&&%%%%%%%$$$$$$$1111111",
"2222222.......              %%%%%%%-------:::::::::::::::::::::::::::::::::::;;;;;;;==============&&&&&&&%%%%%%%$$$$$$$1111111",
"2222222.......              %%%%%%%-------:::::::::::::::::::::::::::::::::::;;;;;;;==============&&&&&&&%%%%%%%$$$$$$$1111111",
"2222222.......              %%%%%%%-------:::::::::::::::::::::::::::::::::::;;;;;;;==============&&&&&&&%%%%%%%$$$$$$$1111111"
};
